<svg xmlns="http://www.w3.org/2000/svg" width="14.569" height="19.171" viewBox="0 0 14.569 19.171">
  <g id="delete" data-name="delete" transform="translate(10110.785 2459.585)">
    <path id="Path_3110" data-name="Path 3110" d="M201.046,72.439a.342.342,0,0,0,.316.248h2.722a.895.895,0,0,1,.248,1.754l-.467,12.848a1.963,1.963,0,0,1-1.955,1.884h-8.432a1.965,1.965,0,0,1-1.955-1.884l-.467-12.848a.895.895,0,0,1,.248-1.754h2.722a.344.344,0,0,0,.316-.248l.192-.766A2.269,2.269,0,0,1,196.671,70h2.047a2.268,2.268,0,0,1,2.137,1.67Zm-3.991,4.338v8.691a.639.639,0,0,0,1.278,0V76.777a.639.639,0,1,0-1.278,0Zm-2.939.019.256,8.691a.639.639,0,1,0,1.277-.038l-.256-8.691a.639.639,0,1,0-1.277.038Zm5.879-.038-.256,8.691a.639.639,0,0,0,1.277.038l.256-8.691a.639.639,0,0,0-1.277-.038Zm-3.744-4.071h2.886a.094.094,0,0,0,.1-.123l-.114-.457a.493.493,0,0,0-.4-.315H196.67a.494.494,0,0,0-.4.315l-.114.457A.094.094,0,0,0,196.251,72.687Z" transform="translate(-10301.194 -2529.588)" fill="#eb4444"/>
  </g>
</svg>
