<svg xmlns="http://www.w3.org/2000/svg" width="14.57" height="14.595" viewBox="0 0 14.57 14.595">
  <g id="Group_320" data-name="Group 320" transform="translate(10062 2456)">
    <path id="noun-edit-3094236" d="M81.277-.276a.456.456,0,0,0-.316.135L79.536,1.284l3.674,3.675,1.427-1.427a.456.456,0,0,0,0-.642L81.606-.14a.456.456,0,0,0-.329-.135Zm-2.385,2.2L71.88,8.94a.455.455,0,0,0-.131.319L71.735,12.3a.456.456,0,0,0,.457.457l3.043-.013h0a.456.456,0,0,0,.32-.134L82.567,5.6Zm-8.247,11.48a.456.456,0,0,0,0,.911H82.774a.456.456,0,0,0,0-.911Z" transform="translate(-10132.199 -2455.724)" fill="#5659dd"/>
  </g>
</svg>
